<svg width="538.7337280273438px" height="122.021240234375px" xmlns="http://www.w3.org/2000/svg" viewBox="-19.366864013671886 13.9893798828125 538.7337280273438 122.021240234375" style="background: rgba(0, 0, 0, 0);" preserveAspectRatio="xMidYMid"><defs><linearGradient id="editing-outline-gradient" x1="-0.5" x2="1.5" y1="0.5" y2="0.5"><stop offset="0" stop-color="#c52494"></stop><stop offset="1" stop-color="#5eff39"></stop></linearGradient><filter id="editing-outline" x="-100%" y="-100%" width="300%" height="300%"><feMorphology in="SourceGraphic" operator="dilate" radius="2" result="outline"></feMorphology><feComposite operator="out" in="outline" in2="SourceAlpha"></feComposite></filter></defs><g filter="url(#editing-outline)"><g transform="translate(60.08469116687775, 98.7578125)"><path d="M26.05-29.57L26.05-29.57L26.05-29.57Q27.01-31.49 27.01-33.28L27.01-33.28L27.01-33.28Q27.01-35.07 26.82-36.06L26.82-36.06L26.82-36.06Q26.62-37.06 26.18-37.82L26.18-37.82L26.18-37.82Q25.22-39.49 23.30-39.49L23.30-39.49L23.30-39.49Q20.93-39.49 19.01-37.76L19.01-37.76L19.01-37.76Q16.96-35.97 16.96-33.15L16.96-33.15L16.96-33.15Q16.96-31.36 18.21-29.98L18.21-29.98L18.21-29.98Q19.46-28.61 21.38-27.33L21.38-27.33L21.38-27.33Q23.30-26.05 25.47-24.77L25.47-24.77L25.47-24.77Q27.65-23.49 29.57-21.95L29.57-21.95L29.57-21.95Q33.98-18.43 33.98-13.70L33.98-13.70L33.98-13.70Q33.98-10.50 32.29-7.78L32.29-7.78L32.29-7.78Q30.59-5.06 27.78-3.07L27.78-3.07L27.78-3.07Q21.63 1.28 13.50 1.28L13.50 1.28L13.50 1.28Q6.91 1.28 3.52-0.86L3.52-0.86L3.52-0.86Q0.13-3.01 0.13-6.27L0.13-6.27L0.13-6.27Q0.13-12.10 4.67-13.57L4.67-13.57L4.67-13.57Q5.95-14.02 7.90-14.02L7.90-14.02L7.90-14.02Q9.86-14.02 12.10-13.18L12.10-13.18L12.10-13.18Q11.07-10.56 11.07-8.19L11.07-8.19L11.07-8.19Q11.07-3.07 14.72-3.07L14.72-3.07L14.72-3.07Q17.09-3.07 19.04-4.80L19.04-4.80L19.04-4.80Q20.99-6.53 20.99-8.48L20.99-8.48L20.99-8.48Q20.99-10.43 19.74-11.84L19.74-11.84L19.74-11.84Q18.50-13.25 16.64-14.37L16.64-14.37L16.64-14.37Q14.78-15.49 12.64-16.58L12.64-16.58L12.64-16.58Q10.50-17.66 8.64-19.20L8.64-19.20L8.64-19.20Q4.29-22.72 4.29-28.35L4.29-28.35L4.29-28.35Q4.29-32 6.08-34.85L6.08-34.85L6.08-34.85Q7.87-37.70 10.75-39.62L10.75-39.62L10.75-39.62Q16.51-43.52 23.58-43.52L23.58-43.52L23.58-43.52Q30.66-43.52 34.08-41.41L34.08-41.41L34.08-41.41Q37.50-39.30 37.50-35.71L37.50-35.71L37.50-35.71Q37.50-32.58 35.07-30.59L35.07-30.59L35.07-30.59Q32.96-28.93 30.40-28.93L30.40-28.93L30.40-28.93Q27.84-28.93 26.05-29.57ZM52.80 1.28L52.80 1.28L52.80 1.28Q38.72 1.28 38.72-11.97L38.72-11.97L38.72-11.97Q38.72-21.38 43.90-27.46L43.90-27.46L43.90-27.46Q49.41-33.92 58.94-33.92L58.94-33.92L58.94-33.92Q65.86-33.92 69.38-30.72L69.38-30.72L69.38-30.72Q72.90-27.52 72.90-20.80L72.90-20.80L72.90-20.80Q72.90-10.56 67.39-4.61L67.39-4.61L67.39-4.61Q62.02 1.28 52.80 1.28ZM54.46-26.56L54.46-26.56L54.46-26.56Q53.70-24.83 53.09-22.24L53.09-22.24L53.09-22.24Q52.48-19.65 51.71-15.55L51.71-15.55L51.71-15.55Q50.94-11.46 50.94-6.40L50.94-6.40L50.94-6.40Q50.94-4.74 51.49-3.65L51.49-3.65L51.49-3.65Q52.03-2.56 53.50-2.56L53.50-2.56L53.50-2.56Q54.98-2.56 55.90-3.26L55.90-3.26L55.90-3.26Q56.83-3.97 57.54-5.63L57.54-5.63L57.54-5.63Q58.82-8.58 59.84-14.05L59.84-14.05L59.84-14.05Q60.86-19.52 60.96-21.89L60.96-21.89L60.96-21.89Q61.06-24.26 61.06-26.02L61.06-26.02L61.06-26.02Q61.06-27.78 60.54-28.93L60.54-28.93L60.54-28.93Q60.03-30.08 58.59-30.08L58.59-30.08L58.59-30.08Q57.15-30.08 56.19-29.18L56.19-29.18L56.19-29.18Q55.23-28.29 54.46-26.56ZM93.18-30.34L93.18-30.34L93.18-30.34Q96.64-33.92 103.94-33.92L103.94-33.92L103.94-33.92Q107.97-33.92 110.18-31.78L110.18-31.78L110.18-31.78Q112.38-29.63 112.38-25.70L112.38-25.70L112.38-25.70Q112.38-21.76 110.18-18.98L110.18-18.98L110.18-18.98Q107.97-16.19 103.87-15.04L103.87-15.04L103.87-15.04Q104.19-13.76 104.64-12.42L104.64-12.42L105.54-9.86L105.54-9.86Q106.75-6.59 107.71-5.44L107.71-5.44L107.71-5.44Q108.67-4.29 109.95-3.90L109.95-3.90L109.95-3.90Q109.25-1.28 106.69 0.13L106.69 0.13L106.69 0.13Q104.64 1.28 101.82 1.28L101.82 1.28L101.82 1.28Q93.57 1.28 92.48-11.46L92.48-11.46L92.48-11.46Q92.29-13.25 92.29-15.04L92.29-15.04L92.29-15.04Q95.49-15.94 97.73-18.94L97.73-18.94L97.73-18.94Q99.97-21.95 99.97-25.47L99.97-25.47L99.97-25.47Q99.97-28.99 97.47-28.99L97.47-28.99L97.47-28.99Q95.68-28.99 94.27-27.01L94.27-27.01L94.27-27.01Q92.86-25.02 92.22-21.63L92.22-21.63L88 0L75.07 1.28L84.03-44.80L96.90-46.08L95.42-38.46L95.42-38.46Q94.46-33.09 93.18-30.34ZM118.11-1.92L118.11-1.92L118.11-1.92Q116.61-3.58 115.94-6.21L115.94-6.21L115.94-6.21Q115.26-8.83 115.26-13.12L115.26-13.12L115.26-13.12Q115.26-17.41 116.74-21.31L116.74-21.31L116.74-21.31Q118.21-25.22 120.90-28.03L120.90-28.03L120.90-28.03Q126.40-33.92 135.49-33.92L135.49-33.92L135.49-33.92Q138.75-33.92 141.12-32.83L141.12-32.83L152.06-33.92L147.33-8.96L147.33-8.96Q147.14-8.19 147.14-6.78L147.14-6.78L147.14-6.78Q147.14-5.38 148-4.48L148-4.48L148-4.48Q148.86-3.58 150.14-3.46L150.14-3.46L150.14-3.46Q149.50-1.28 147.17 0L147.17 0L147.17 0Q144.83 1.28 142.21 1.28L142.21 1.28L142.21 1.28Q139.58 1.28 137.82 0.29L137.82 0.29L137.82 0.29Q136.06-0.70 135.55-2.37L135.55-2.37L135.55-2.37Q134.53-0.77 132.35 0.26L132.35 0.26L132.35 0.26Q130.18 1.28 127.26 1.28L127.26 1.28L127.26 1.28Q124.35 1.28 121.98 0.51L121.98 0.51L121.98 0.51Q119.62-0.26 118.11-1.92ZM131.62-27.90L131.62-27.90L131.62-27.90Q130.88-26.75 130.24-24.80L130.24-24.80L130.24-24.80Q129.60-22.85 128.54-17.63L128.54-17.63L128.54-17.63Q127.49-12.42 127.49-8.70L127.49-8.70L127.49-8.70Q127.49-4.99 128.06-3.90L128.06-3.90L128.06-3.90Q128.64-2.82 129.66-2.82L129.66-2.82L129.66-2.82Q131.71-2.82 133.22-4.77L133.22-4.77L133.22-4.77Q134.72-6.72 135.30-10.18L135.30-10.18L138.69-28.93L138.69-28.93Q137.34-30.08 135.78-30.08L135.78-30.08L135.78-30.08Q134.21-30.08 133.28-29.57L133.28-29.57L133.28-29.57Q132.35-29.06 131.62-27.90ZM180.54-42.69L180.54-42.69L180.54-42.69Q196.22-42.69 196.22-31.62L196.22-31.62L196.22-31.62Q196.22-25.54 192.32-21.89L192.32-21.89L192.32-21.89Q188.48-18.24 181.76-18.24L181.76-18.24L181.76-18.24Q178.62-18.24 176.19-20.03L176.19-20.03L176.19-20.03Q175.04-20.80 174.27-21.82L174.27-21.82L174.27-21.82Q178.94-21.82 181.41-24.67L181.41-24.67L181.41-24.67Q183.87-27.52 183.87-33.09L183.87-33.09L183.87-33.09Q183.87-38.66 178.37-38.66L178.37-38.66L176.83-38.66L176.83-38.66Q176.45-38.66 176.13-38.59L176.13-38.59L168.77 0L154.88 0L162.75-41.92L162.75-41.92Q169.60-42.56 173.57-42.62L173.57-42.62L173.57-42.62Q177.54-42.69 180.54-42.69ZM216.58-17.98L216.58-17.98L216.58-17.98Q218.88-22.08 218.88-26.24L218.88-26.24L218.88-26.24Q218.88-28.99 216.90-28.99L216.90-28.99L216.90-28.99Q215.36-28.99 213.76-26.37L213.76-26.37L213.76-26.37Q212.10-23.74 211.58-20.35L211.58-20.35L208.26 0L195.01 1.28L201.54-32.64L212.10-33.92L210.94-27.46L210.94-27.46Q214.08-33.92 221.12-33.92L221.12-33.92L221.12-33.92Q224.83-33.92 226.85-32L226.85-32L226.85-32Q228.86-30.08 228.86-26.14L228.86-26.14L228.86-26.14Q228.86-22.21 226.27-19.71L226.27-19.71L226.27-19.71Q223.68-17.22 219.26-17.22L219.26-17.22L219.26-17.22Q217.34-17.22 216.58-17.98ZM255.81-10.82L255.81-10.82L255.81-10.82Q257.41-9.73 257.41-7.33L257.41-7.33L257.41-7.33Q257.41-4.93 256.19-3.39L256.19-3.39L256.19-3.39Q254.98-1.86 252.99-0.83L252.99-0.83L252.99-0.83Q248.90 1.28 244.48 1.28L244.48 1.28L244.48 1.28Q240.06 1.28 237.47 0.32L237.47 0.32L237.47 0.32Q234.88-0.64 233.15-2.43L233.15-2.43L233.15-2.43Q229.76-5.82 229.76-12.03L229.76-12.03L229.76-12.03Q229.76-21.70 235.01-27.58L235.01-27.58L235.01-27.58Q240.64-33.92 250.43-33.92L250.43-33.92L250.43-33.92Q256.51-33.92 259.52-31.36L259.52-31.36L259.52-31.36Q261.76-29.44 261.76-26.30L261.76-26.30L261.76-26.30Q261.76-15.04 242.30-15.04L242.30-15.04L242.30-15.04Q242.05-13.38 242.05-11.97L242.05-11.97L242.05-11.97Q242.05-9.02 243.36-7.90L243.36-7.90L243.36-7.90Q244.67-6.78 247.10-6.78L247.10-6.78L247.10-6.78Q249.54-6.78 252.13-7.90L252.13-7.90L252.13-7.90Q254.72-9.02 255.81-10.82ZM242.75-17.79L242.75-17.79L242.75-17.79Q247.30-17.79 249.92-20.61L249.92-20.61L249.92-20.61Q252.54-23.30 252.54-27.58L252.54-27.58L252.54-27.58Q252.54-29.06 252-29.86L252-29.86L252-29.86Q251.46-30.66 250.37-30.66L250.37-30.66L250.37-30.66Q249.28-30.66 248.35-30.24L248.35-30.24L248.35-30.24Q247.42-29.82 246.46-28.42L246.46-28.42L246.46-28.42Q244.10-25.22 242.75-17.79ZM284.10-33.92L284.10-33.92L284.10-33.92Q286.40-33.92 288.19-33.41L288.19-33.41L288.19-33.41Q288.26-33.66 288.38-34.37L288.38-34.37L288.70-36.35L288.70-36.35Q288.96-37.63 289.34-39.74L289.34-39.74L290.37-44.80L303.10-46.08L296-8.96L296-8.96Q295.94-8.58 295.94-7.94L295.94-7.94L295.94-6.91L295.94-6.91Q295.94-5.50 296.64-4.45L296.64-4.45L296.64-4.45Q297.34-3.39 298.50-3.39L298.50-3.39L298.50-3.39Q297.22-0.38 293.31 0.90L293.31 0.90L293.31 0.90Q291.97 1.28 290.08 1.28L290.08 1.28L290.08 1.28Q288.19 1.28 286.46 0.29L286.46 0.29L286.46 0.29Q284.74-0.70 284.22-2.37L284.22-2.37L284.22-2.37Q283.20-0.70 281.15 0.29L281.15 0.29L281.15 0.29Q279.10 1.28 276.13 1.28L276.13 1.28L276.13 1.28Q273.15 1.28 270.69 0.51L270.69 0.51L270.69 0.51Q268.22-0.26 266.69-1.92L266.69-1.92L266.69-1.92Q263.87-5.18 263.87-12.61L263.87-12.61L263.87-12.61Q263.87-22.21 269.50-28.03L269.50-28.03L269.50-28.03Q275.14-33.92 284.10-33.92ZM283.65-30.08L283.65-30.08L283.65-30.08Q281.28-30.08 280-27.52L280-27.52L280-27.52Q278.72-24.96 277.41-18.62L277.41-18.62L277.41-18.62Q276.10-12.29 276.10-6.59L276.10-6.59L276.10-6.59Q276.10-2.69 278.40-2.69L278.40-2.69L278.40-2.69Q280.45-2.69 281.89-4.74L281.89-4.74L281.89-4.74Q283.33-6.78 283.90-10.18L283.90-10.18L287.36-28.93L287.36-28.93Q286.02-30.08 283.65-30.08ZM319.30-3.52L319.30-3.52L319.30-3.52Q317.31 1.28 310.98 1.28L310.98 1.28L310.98 1.28Q307.71 1.28 305.66-0.96L305.66-0.96L305.66-0.96Q303.94-2.94 303.94-4.93L303.94-4.93L303.94-4.93Q303.94-10.11 306.30-20.22L306.30-20.22L308.67-32.64L321.66-33.92L317.76-13.70L317.76-13.70Q316.67-8.96 316.67-7.30L316.67-7.30L316.67-7.30Q316.67-3.65 319.30-3.52ZM309.82-41.54L309.82-41.54L309.82-41.54Q309.82-44.03 311.90-45.38L311.90-45.38L311.90-45.38Q313.98-46.72 316.99-46.72L316.99-46.72L316.99-46.72Q320-46.72 321.82-45.38L321.82-45.38L321.82-45.38Q323.65-44.03 323.65-41.54L323.65-41.54L323.65-41.54Q323.65-39.04 321.63-37.76L321.63-37.76L321.63-37.76Q319.62-36.48 316.61-36.48L316.61-36.48L316.61-36.48Q313.60-36.48 311.71-37.76L311.71-37.76L311.71-37.76Q309.82-39.04 309.82-41.54ZM356.16-26.62L356.16-26.62L356.16-26.62Q356.16-23.94 353.92-22.27L353.92-22.27L353.92-22.27Q351.68-20.61 348.03-20.61L348.03-20.61L348.03-20.61Q346.50-20.61 345.60-21.06L345.60-21.06L345.60-21.06Q346.30-22.72 346.53-24.80L346.53-24.80L346.53-24.80Q346.75-26.88 346.75-27.46L346.75-27.46L346.75-27.46Q346.75-30.14 344.90-30.14L344.90-30.14L344.90-30.14Q343.62-30.14 342.18-28.54L342.18-28.54L342.18-28.54Q340.74-26.94 339.52-24.45L339.52-24.45L339.52-24.45Q336.83-18.69 336.83-12.86L336.83-12.86L336.83-12.86Q336.83-9.66 338.05-8.22L338.05-8.22L338.05-8.22Q339.26-6.78 341.95-6.78L341.95-6.78L341.95-6.78Q345.66-6.78 348.61-9.86L348.61-9.86L348.61-9.86Q349.44-10.82 349.89-11.90L349.89-11.90L349.89-11.90Q352.32-10.62 352.32-7.10L352.32-7.10L352.32-7.10Q352.32-3.52 348.35-1.15L348.35-1.15L348.35-1.15Q344.26 1.28 337.73 1.28L337.73 1.28L337.73 1.28Q324.74 1.28 324.74-12.48L324.74-12.48L324.74-12.48Q324.74-22.53 330.43-28.29L330.43-28.29L330.43-28.29Q335.94-33.92 346.05-33.92L346.05-33.92L346.05-33.92Q356.16-33.92 356.16-26.62ZM358.91-6.40L358.91-6.40L358.91-6.40Q358.91-8.13 359.81-12.48L359.81-12.48L363.20-29.76L359.42-29.76L359.68-31.68L359.68-31.68Q367.36-33.98 374.78-39.62L374.78-39.62L377.86-39.62L376.32-32.64L381.31-32.64L380.74-29.76L375.81-29.76L372.54-12.48L372.54-12.48Q371.71-8.51 371.71-7.17L371.71-7.17L371.71-7.17Q371.71-4.10 374.40-3.46L374.40-3.46L374.40-3.46Q373.76-1.28 371.46 0L371.46 0L371.46 0Q369.15 1.28 365.89 1.28L365.89 1.28L365.89 1.28Q362.62 1.28 360.77-0.77L360.77-0.77L360.77-0.77Q358.91-2.82 358.91-6.40Z" fill="url(#editing-outline-gradient)"></path></g></g><style>text {
  font-size: 64px;
  font-family: Arial Black;
  dominant-baseline: central;
  text-anchor: middle;
}</style></svg>