<svg xmlns="http://www.w3.org/2000/svg" viewBox="0 0 1362.94 410.61"><defs><style>.cls-1{fill:#fff;fill-rule:evenodd;}</style></defs><title>white-logo</title><g id="Layer_2" data-name="Layer 2"><g id="Layer_1-2" data-name="Layer 1"><path class="cls-1" d="M1329.67,273.74A33.28,33.28,0,1,1,1296.41,307,33.27,33.27,0,0,1,1329.67,273.74Zm-584.19-59.3,79.84,125.75H744.85L680,232.83V340.28H615.45V13.72L679.72.05,680,0V204.08l61.74-94.73h76.36ZM65.19,175.34c0,29,98.51,15.22,98.51,92.08,0,46.38-36.92,72.86-90.5,72.86A179,179,0,0,1,2.72,325.66V264.12c21.63,11.76,49.19,20.58,70.53,20.58,14.37,0,24.73-3.86,24.73-15.76,0-30.77-98-19.18-98-90.53,0-45.63,34.86-72.94,87.13-72.94,21.35,0,42.69,3.28,64.05,11.79V178c-19.61-10.58-44.5-16.58-64.1-16.58C73.57,161.38,65.19,165.29,65.19,175.34ZM894,53.8l0,56h49v55h-49v91.69c0,38,40.67,26.17,48.93,22.87v52.46c-8.6,4.71-24.16,8.54-45.24,8.54-38.25,0-66.93-28.17-66.93-66.33l.27-206.78Zm129.25,75c15.09-27.73,45.2-22.12,53.79-19V169c-8.2-2.64-33.91-6.5-49.14,13.5V335.68H963.49V109.76h55.72ZM294.78,105.47c45.27,0,87.89,40.78,87.89,115.81,0,81.9-42.17,119-88.27,119-22.56,0-36.34-9.52-45.6-16.31l-.13,72.94-64.45,13.7,0-300.85h56.75l3.36,15.92C253.21,117.36,269.53,105.47,294.78,105.47Zm-15.4,177.87c-15.11,0-24.14-5.46-30.4-12.23l-.38-95.77c6.72-7.37,16-12.77,30.78-12.77,23.58,0,39.82,26.41,39.82,60.12,0,34.7-16,60.65-39.82,60.65M595,223.58c0-66-32-118.11-93.18-118.11s-98.63,52.13-98.63,117.77c0,77.72,44,117,106.76,117,30.81,0,53.94-7,71.44-16.71V271.65c-17.57,8.86-37.72,14.26-63.31,14.26-25.12,0-47.24-8.9-50.13-39.11H594.09C594.38,243.33,595,229.82,595,223.58ZM467.36,199.22c0-29,17.9-41.2,34-41.2,15.83,0,32.6,12.19,32.6,41.2ZM1269,210.45c0-43.23-7-64.93-26.06-84.19-13.62-13.76-34.66-19.17-65.27-20.44-17.23-.71-32,.05-47,3.29s-20.5,7.4-33.44,12.64l0,54a242.81,242.81,0,0,1,35.82-12.48,147.58,147.58,0,0,1,37.22-4.62q34.18,0,34.2,28.66v4.15q-66.55,6-98,26.12t-31.43,59.86q0,31,17.1,46.91t44.37,15.95q23.58,0,40.45-9a118.58,118.58,0,0,0,30.73-23.81l4.63,28.2h56.87Zm-64.47,62.81q-19.43,17.1-38.83,17.11-9.7,0-15.72-5.78c-4-3.86-6-9.32-6-16.42a36.58,36.58,0,0,1,2.77-14.1,31.27,31.27,0,0,1,9.71-12.24q6.93-5.55,18.49-9.71t29.58-6.93Z"/></g></g></svg>